<?xml version="1.0" standalone="no"?>
<!DOCTYPE svg PUBLIC "-//W3C//DTD SVG 20010904//EN"
 "http://www.w3.org/TR/2001/REC-SVG-20010904/DTD/svg10.dtd">
<svg version="1.0" xmlns="http://www.w3.org/2000/svg"
 width="576.000000pt" height="720.000000pt" viewBox="0 0 576.000000 720.000000"
 preserveAspectRatio="xMidYMid meet">

<g transform="translate(0.000000,720.000000) scale(0.100000,-0.100000)"
fill="#000000" stroke="none">
<path d="M2970 7100 c-11 -8 -8 -9 12 -4 36 8 63 -2 76 -29 8 -17 11 -18 11
-5 2 35 -65 60 -99 38z"/>
<path d="M3394 7045 c31 -29 33 -56 5 -73 -16 -10 -36 -11 -92 -3 -40 6 -93
13 -118 16 -25 3 -61 16 -80 29 -30 21 -35 22 -45 8 -10 -14 -14 -14 -28 -3
-10 9 -28 11 -51 7 -25 -5 -40 -3 -51 8 -10 11 -21 13 -37 7 -12 -5 -48 -16
-79 -25 -64 -19 -118 -58 -118 -86 0 -23 -31 -48 -99 -80 -37 -17 -54 -21 -59
-12 -13 20 -56 -10 -78 -56 l-20 -43 -28 26 c-15 14 -44 28 -64 31 -35 6 -40
3 -65 -33 -15 -21 -36 -73 -46 -116 -18 -68 -19 -81 -7 -115 12 -32 12 -43 0
-71 -18 -44 -18 -90 2 -137 9 -22 17 -41 18 -44 0 -3 4 -4 7 -3 3 1 6 -18 8
-43 2 -50 -13 -58 -44 -24 -10 11 -22 20 -26 20 -4 0 6 -13 22 -29 33 -34 36
-60 12 -102 -17 -28 -17 -31 0 -60 9 -17 17 -38 17 -46 0 -9 11 -36 25 -59 25
-43 53 -149 42 -160 -3 -3 -22 0 -42 7 -35 13 -38 13 -61 -14 -28 -32 -33
-105 -10 -146 12 -21 12 -31 0 -64 -19 -55 -17 -107 6 -171 29 -77 76 -116
139 -116 l48 0 11 -62 c6 -35 23 -106 37 -158 32 -119 28 -152 -30 -223 -42
-52 -44 -53 -119 -65 -43 -7 -100 -23 -129 -36 -29 -12 -70 -29 -92 -36 -22
-7 -79 -32 -128 -57 -127 -63 -228 -98 -452 -154 -215 -54 -351 -95 -360 -110
-4 -5 -20 -9 -37 -9 -22 0 -40 -10 -63 -35 -51 -53 -69 -121 -100 -370 -9 -75
-22 -123 -53 -195 -22 -52 -57 -156 -77 -230 -20 -74 -53 -184 -72 -245 -20
-61 -40 -146 -44 -190 -4 -44 -14 -129 -21 -190 -17 -140 -14 -1256 3 -1353 9
-47 8 -78 -1 -125 -11 -59 -9 -72 17 -178 20 -82 37 -128 61 -164 19 -27 45
-81 59 -120 14 -38 38 -92 53 -120 28 -51 56 -124 52 -137 -1 -5 3 -8 8 -8 6
0 10 -4 10 -10 0 -19 -21 -10 -49 21 l-28 30 -59 -52 c-33 -29 -84 -80 -114
-114 -30 -33 -114 -119 -187 -191 -117 -116 -137 -140 -169 -210 -21 -43 -55
-98 -78 -122 l-40 -42 781 0 780 0 18 63 c22 80 46 127 107 209 59 81 96 113
163 144 68 32 119 30 222 -9 84 -32 93 -39 196 -141 93 -94 130 -146 115 -161
-2 -3 -13 2 -24 11 -19 15 -19 16 1 9 32 -10 -34 55 -72 71 -68 29 -173 6
-219 -49 -19 -22 -19 -22 1 -5 29 24 89 48 123 48 28 0 107 -43 148 -82 12
-10 52 -26 89 -33 37 -8 87 -26 112 -40 25 -14 53 -25 62 -25 21 0 118 45 136
64 16 16 98 36 147 36 17 0 63 -10 102 -22 89 -27 170 -27 200 0 44 40 164 62
201 36 27 -19 35 -18 35 6 0 29 -20 47 -46 42 -25 -4 -37 9 -28 32 9 24 34 19
63 -13 14 -16 37 -31 51 -32 36 -6 39 -43 6 -61 l-26 -14 27 -41 27 -42 97 0
c97 0 98 0 107 27 l9 27 6 -28 c4 -15 14 -27 23 -27 19 0 14 20 -32 117 -40
84 -40 87 -14 184 22 85 23 92 11 85 -5 -3 -17 -46 -27 -96 l-18 -90 -36 34
c-52 50 -95 68 -159 67 -65 -1 -92 -4 -107 -13 -5 -4 -16 -3 -23 1 -20 13 31
43 153 91 92 36 116 42 157 37 123 -15 270 -169 325 -341 l22 -71 613 -3 613
-2 -45 47 c-26 27 -102 118 -169 203 -68 85 -143 179 -167 209 -47 58 -50 67
-29 96 52 76 162 304 195 407 7 21 11 70 10 110 -1 40 4 97 11 126 12 44 12
60 0 105 -10 38 -13 95 -9 212 5 197 5 631 0 820 -2 77 0 160 4 184 7 45 -1
115 -31 256 -8 39 -14 86 -14 106 0 47 -35 279 -55 367 -9 37 -29 110 -45 162
-17 52 -30 115 -30 140 0 25 -9 74 -20 109 -18 60 -18 71 -6 173 18 144 3 209
-50 222 -15 4 -34 16 -43 26 -9 10 -54 32 -101 48 -47 17 -146 59 -220 95 -74
35 -178 76 -230 91 -184 52 -303 104 -437 193 -62 40 -132 82 -155 92 -44 19
-72 45 -122 115 -27 35 -28 43 -23 103 5 45 15 80 36 116 32 56 81 207 81 249
0 23 5 26 47 31 32 3 53 12 65 27 26 32 48 116 50 190 0 36 5 76 11 90 31 81
29 153 -4 189 -15 16 -27 19 -51 14 -31 -6 -31 -6 -24 28 15 85 47 390 46 449
-1 42 5 77 14 95 9 17 16 45 16 63 0 18 7 56 16 83 14 41 14 57 5 92 -6 23 -9
56 -7 73 5 34 -5 56 -26 61 -102 23 -137 39 -193 88 -33 29 -71 56 -85 60 -14
4 -46 27 -72 51 -26 24 -54 44 -62 44 -13 0 -56 74 -56 97 0 15 -49 53 -68 53
-10 0 -7 -8 12 -25z m-1138 -686 c3 -40 -11 -25 -20 21 -5 27 -4 32 6 22 6 -6
13 -26 14 -43z m985 -130 c6 -11 8 -23 5 -27 -8 -7 24 -42 38 -42 6 0 22 -10
36 -22 14 -13 39 -24 57 -24 28 -2 91 -39 92 -55 1 -3 -16 -6 -36 -7 -58 -4
-70 -7 -87 -21 -14 -11 -16 -11 -16 2 0 10 -7 15 -19 12 -23 -4 -61 -27 -62
-37 -1 -5 -2 -13 -3 -20 0 -7 -11 -17 -23 -24 -13 -6 -20 -14 -16 -17 3 -4 -2
-7 -11 -7 -14 0 -17 -6 -13 -27 3 -15 -1 -70 -9 -122 -8 -52 -12 -110 -9 -128
3 -19 1 -33 -5 -33 -7 0 -7 -6 0 -19 5 -11 10 -28 10 -38 0 -19 23 -43 59 -63
30 -16 26 -44 -11 -72 -42 -31 -66 -40 -70 -26 -3 7 -10 7 -24 -2 -18 -11 -24
-9 -45 12 -14 14 -33 29 -43 35 -16 9 -17 13 -6 34 8 13 19 29 25 34 7 6 15
21 18 35 3 14 12 50 21 80 12 41 15 81 11 155 -9 166 -15 214 -29 209 -7 -3
-30 5 -50 16 -20 12 -36 19 -36 15 0 -4 -6 -2 -13 4 -8 6 -29 13 -48 15 -79
10 -83 25 -16 55 88 38 129 46 159 30 15 -8 24 -7 40 7 10 10 31 19 46 20 15
1 31 3 35 3 5 1 6 5 2 10 -3 5 5 11 17 13 12 2 23 9 26 16 3 11 -3 10 -26 -2
-24 -12 -37 -14 -58 -6 -15 6 -36 8 -48 5 -18 -5 -19 -5 -4 5 10 6 24 10 30 9
25 -3 48 1 47 9 -3 15 1 18 26 20 16 1 28 -5 36 -19z m-414 -295 c-3 -3 -12
-4 -19 -1 -8 3 -5 6 6 6 11 1 17 -2 13 -5z m31 -21 c-10 -2 -26 -2 -35 0 -10
3 -2 5 17 5 19 0 27 -2 18 -5z m644 -5 c-8 -8 -20 -8 -44 -1 l-33 11 45 1 c33
1 41 -2 32 -11z m-569 -114 c9 -4 17 -10 17 -14 0 -7 -60 -23 -66 -17 -8 8 10
47 20 42 6 -3 19 -8 29 -11z m337 -9 c-7 -9 -15 -13 -18 -10 -3 2 1 11 8 20 7
9 15 13 18 10 3 -2 -1 -11 -8 -20z m-516 -1 c3 -8 2 -12 -4 -9 -6 3 -10 10
-10 16 0 14 7 11 14 -7z m626 -9 c0 -17 -4 -23 -15 -20 -51 16 -49 15 -29 30
28 21 44 18 44 -10z m150 -14 c0 -5 -7 -11 -15 -15 -15 -5 -20 5 -8 17 9 10
23 9 23 -2z m-545 -11 c-3 -5 -10 -10 -16 -10 -5 0 -9 5 -9 10 0 6 7 10 16 10
8 0 12 -4 9 -10z m-655 -91 c0 -5 -9 -9 -20 -9 -19 0 -27 20 -13 33 7 8 33
-11 33 -24z m-90 -5 c0 -8 -5 -12 -10 -9 -6 4 -8 11 -5 16 9 14 15 11 15 -7z
m1111 -7 c24 -13 67 -32 94 -42 28 -11 53 -24 58 -29 5 -8 9 -8 15 -1 4 6 17
10 30 9 12 -1 22 3 22 9 0 5 5 5 13 -2 8 -6 17 -8 20 -5 3 3 4 -8 2 -26 -3
-25 -1 -31 11 -26 10 4 13 2 8 -6 -4 -6 -7 -38 -6 -70 0 -49 -3 -62 -23 -81
-49 -46 -50 -46 -84 -30 -17 9 -31 19 -31 23 0 9 -90 103 -135 140 -25 21 -30
33 -32 72 -1 26 -7 57 -13 68 -14 26 -3 25 51 -3z m-475 -15 c-3 -5 6 -25 19
-44 l24 -35 -32 -37 c-18 -20 -39 -36 -46 -36 -8 0 -11 -3 -8 -6 4 -4 -12 -16
-34 -27 -22 -11 -47 -30 -56 -43 -8 -13 -25 -24 -37 -24 -12 0 -27 -5 -33 -11
-7 -7 -19 -3 -39 14 -28 24 -29 29 -28 112 0 60 4 89 13 95 8 4 11 13 7 19 -5
7 -1 8 10 4 11 -4 15 -2 11 4 -5 8 4 8 29 3 20 -5 55 -7 77 -4 22 2 46 -1 53
-6 8 -7 13 -6 18 5 3 8 10 15 16 15 6 0 8 -4 5 -10 -3 -5 -1 -10 4 -10 6 0 11
7 11 15 0 8 5 15 11 15 5 0 8 -4 5 -8z m994 -23 c0 -12 -7 -19 -20 -19 -22 0
-26 20 -8 38 15 15 28 6 28 -19z m-1590 -24 c0 -9 -6 -28 -14 -43 -8 -15 -13
-49 -13 -75 2 -53 -4 -59 -21 -21 -14 30 -6 99 16 132 17 26 32 29 32 7z m61
-78 c-16 -16 -26 0 -10 19 9 11 15 12 17 4 2 -6 -1 -17 -7 -23z m1560 -23 c13
-57 11 -84 -5 -84 -20 0 -52 33 -37 38 6 2 11 26 11 55 0 59 16 54 31 -9z
m-1527 -4 c3 -11 9 -29 12 -40 3 -11 1 -20 -5 -20 -6 0 -11 9 -11 21 0 11 -5
29 -10 40 -7 12 -7 19 -1 19 5 0 12 -9 15 -20z m1462 -27 c-4 -4 -14 1 -22 11
-22 31 -17 43 8 19 12 -13 18 -26 14 -30z m-39 -15 c-3 -8 -6 -5 -6 6 -1 11 2
17 5 13 3 -3 4 -12 1 -19z m33 -19 c0 -11 -4 -17 -10 -14 -5 3 -10 13 -10 21
0 8 5 14 10 14 6 0 10 -9 10 -21z m-992 -34 c-1 -13 -9 -27 -17 -30 -20 -8
-24 0 -17 30 8 33 36 34 34 0z m-513 5 c3 -5 1 -10 -4 -10 -6 0 -11 5 -11 10
0 6 2 10 4 10 3 0 8 -4 11 -10z m1518 -14 c8 -19 -6 -69 -20 -73 -16 -6 -21
27 -9 60 11 30 21 34 29 13z m-709 -141 c-7 -17 -20 -20 -28 -6 -7 10 3 21 20
21 8 0 11 -6 8 -15z m-455 -60 c25 -50 37 -59 27 -20 -5 19 -3 23 9 19 8 -4
15 -1 15 7 0 15 13 4 16 -14 1 -7 5 -20 9 -29 4 -10 3 -18 -3 -18 -5 0 -13 -7
-16 -16 -3 -8 -2 -13 3 -10 11 7 50 -74 44 -91 -6 -15 -23 -17 -23 -3 0 6 -9
10 -21 10 -26 0 -47 20 -43 42 1 10 -3 16 -8 15 -26 -5 -72 126 -51 146 12 13
20 7 42 -38z m853 -5 c0 -16 3 -32 8 -35 5 -3 -4 -19 -20 -37 -16 -17 -34 -44
-41 -61 -10 -24 -14 -26 -21 -13 -5 9 -16 16 -23 16 -8 0 -15 5 -15 11 0 21
-19 -2 -25 -31 -4 -17 -10 -28 -15 -25 -5 3 -16 -2 -24 -11 -15 -14 -16 -13
-16 8 0 13 6 32 14 43 7 11 19 38 26 60 18 56 18 57 46 39 22 -15 26 -15 47
-1 13 9 30 29 37 47 15 36 23 32 22 -10z m-493 3 c25 -2 85 -4 134 -5 66 -2
87 -5 87 -16 0 -7 5 -10 10 -7 6 3 10 2 10 -2 0 -11 -59 -33 -88 -33 -33 0
-26 -18 13 -37 33 -16 34 -18 18 -35 -15 -17 -14 -18 13 -18 26 -1 27 -2 10
-12 -27 -15 -86 -18 -189 -8 -88 9 -131 25 -106 41 10 6 10 11 -1 24 -16 20
-5 32 35 37 28 3 26 5 -22 21 -41 14 -53 23 -53 39 0 16 5 19 24 14 14 -3 28
-1 31 4 4 6 11 7 17 4 6 -4 31 -9 57 -11z m-129 -134 c0 -14 -17 -10 -23 5 -4
10 -1 13 9 9 7 -3 14 -9 14 -14z m-150 -64 c7 -9 8 -15 2 -15 -5 0 -12 7 -16
15 -3 8 -4 15 -2 15 2 0 9 -7 16 -15z m140 -59 c-12 -13 -29 2 -25 22 2 9 4
24 5 32 0 8 7 2 14 -15 7 -16 10 -34 6 -39z m520 14 c0 -5 -4 -10 -10 -10 -5
0 -10 5 -10 10 0 6 5 10 10 10 6 0 10 -4 10 -10z m-434 -25 c4 -8 15 -15 25
-15 11 0 19 -7 19 -17 0 -15 2 -14 15 3 13 18 14 18 15 1 0 -10 4 -16 8 -13 4
2 14 1 21 -4 9 -5 23 0 40 16 24 23 44 28 83 25 9 -1 19 3 23 10 6 8 10 7 16
-2 13 -22 11 -39 -6 -39 -9 0 -18 -6 -21 -14 -3 -8 -12 -12 -20 -9 -8 3 -14 0
-14 -6 0 -6 -7 -11 -16 -11 -10 0 -14 -6 -11 -14 4 -11 1 -13 -10 -9 -12 5
-15 2 -10 -10 5 -14 2 -16 -20 -12 -15 2 -30 -1 -35 -7 -4 -7 -10 -9 -14 -5
-4 4 -2 13 4 19 14 14 16 52 3 44 -5 -4 -12 0 -15 6 -4 9 -5 8 -4 -2 1 -8 -8
-31 -21 -50 l-23 -35 6 43 c6 39 -4 56 -19 32 -3 -5 -2 -10 3 -10 6 0 8 -9 5
-20 -3 -11 -8 -20 -12 -20 -13 0 -26 16 -26 30 0 8 5 18 10 23 14 10 -12 25
-57 32 -42 7 -42 8 -28 36 13 24 78 27 86 4z m-501 -309 c43 -130 166 -259
471 -494 107 -83 129 -89 191 -50 26 17 127 110 224 207 191 191 213 223 247
359 l19 74 12 -44 c19 -72 31 -148 31 -202 0 -53 -34 -209 -75 -336 -13 -41
-26 -102 -29 -135 -4 -33 -18 -118 -31 -190 -14 -71 -44 -227 -66 -345 -62
-330 -101 -499 -113 -497 -6 1 -13 -31 -18 -83 -4 -47 -18 -128 -29 -180 -12
-52 -30 -140 -40 -195 -12 -61 -17 -79 -14 -45 20 229 26 366 23 500 l-4 155
-67 191 c-36 105 -75 208 -87 229 -26 46 -20 84 19 124 14 15 36 39 48 55 12
15 28 29 36 30 7 1 26 11 41 23 15 12 36 25 47 28 10 4 19 10 19 14 0 17 -75
92 -137 139 -58 42 -75 49 -115 50 -25 0 -55 3 -67 7 -15 5 -41 -15 -121 -91
-56 -54 -115 -115 -132 -136 l-30 -39 26 12 c37 17 75 -2 82 -41 7 -31 19 -39
27 -17 6 19 32 -7 57 -58 24 -50 22 -57 -40 -140 -83 -109 -112 -175 -151
-337 -17 -71 -45 -248 -50 -313 -3 -51 -27 90 -29 170 -1 55 -4 82 -9 70 l-8
-20 -6 20 c-23 75 -92 515 -102 649 -7 84 -43 303 -70 421 -66 290 -76 468
-35 600 l25 80 7 -84 c4 -47 14 -107 23 -135z m765 -2306 c-7 -44 -15 -79 -18
-76 -2 3 1 41 9 85 7 45 15 79 17 76 3 -2 -1 -41 -8 -85z m-240 -1241 c0 -5
-4 -9 -10 -9 -5 0 -10 7 -10 16 0 8 5 12 10 9 6 -3 10 -10 10 -16z m17 -11
c-3 -8 -6 -5 -6 6 -1 11 2 17 5 13 3 -3 4 -12 1 -19z m563 -758 c0 -5 -2 -10
-4 -10 -3 0 -8 5 -11 10 -3 6 -1 10 4 10 6 0 11 -4 11 -10z m-87 -16 c18 -6
10 -54 -9 -54 -15 0 -15 1 -19 38 -2 23 3 26 28 16z m262 -214 c0 -18 -6 -26
-23 -28 -27 -4 -40 22 -22 44 19 22 45 13 45 -16z"/>
<path d="M3190 6220 c0 -5 4 -10 9 -10 6 0 13 5 16 10 3 6 -1 10 -9 10 -9 0
-16 -4 -16 -10z"/>
<path d="M2741 5054 c0 -11 3 -14 6 -6 3 7 2 16 -1 19 -3 4 -6 -2 -5 -13z"/>
<path d="M3394 3689 c6 -28 12 -46 14 -40 2 6 14 8 29 5 22 -6 24 -5 15 12 -6
11 -23 31 -39 47 l-30 28 11 -52z"/>
<path d="M2541 3724 c-1 -7 8 -31 19 -55 11 -24 19 -37 19 -29 -1 19 -37 99
-38 84z"/>
<path d="M2631 3618 c-30 -26 -31 -29 -10 -23 30 9 53 30 48 43 -2 6 -19 -3
-38 -20z"/>
<path d="M2220 6305 c0 -8 4 -15 10 -15 5 0 7 7 4 15 -4 8 -8 15 -10 15 -2 0
-4 -7 -4 -15z"/>
</g>
</svg>
